<?xml version="1.0" encoding="UTF-8" standalone="no"?>
<svg
   width="48"
   height="48"
   viewBox="0 0 48.000001 48"
   version="1.1"
   xml:space="preserve"
   style="clip-rule:evenodd;fill-rule:evenodd;stroke-linejoin:round;stroke-miterlimit:2"
   id="svg6"
   sodipodi:docname="misskey.svg"
   inkscape:version="1.1.1 (3bf5ae0d25, 2021-09-20)"
   xmlns:inkscape="http://www.inkscape.org/namespaces/inkscape"
   xmlns:sodipodi="http://sodipodi.sourceforge.net/DTD/sodipodi-0.dtd"
   xmlns="http://www.w3.org/2000/svg"
   xmlns:svg="http://www.w3.org/2000/svg"><defs
   id="defs10" /><sodipodi:namedview
   id="namedview8"
   pagecolor="#505050"
   bordercolor="#eeeeee"
   borderopacity="1"
   inkscape:pageshadow="0"
   inkscape:pageopacity="0"
   inkscape:pagecheckerboard="0"
   showgrid="false"
   width="48px"
   inkscape:zoom="11.928823"
   inkscape:cx="32.693921"
   inkscape:cy="28.628139"
   inkscape:window-width="1920"
   inkscape:window-height="1027"
   inkscape:window-x="-8"
   inkscape:window-y="-8"
   inkscape:window-maximized="1"
   inkscape:current-layer="g4" />
    <g
   id="g4"
   transform="matrix(0.264585,0,0,0.264585,-50.0005,-50.0001)">
        <path
   d="m 211.40284,216.38229 c -2.56896,-0.0104 -5.11831,0.43535 -7.53006,1.31945 -4.27211,1.50346 -7.79381,4.20806 -10.55299,8.10202 -2.63792,3.76748 -3.95933,7.9726 -3.95933,12.6183 v 82.52075 c 0,6.02758 2.13851,11.24328 6.40573,15.63666 4.39794,4.27212 9.61365,6.40573 15.63665,6.40573 6.15798,0 11.36944,-2.13361 15.64123,-6.40083 4.39795,-4.39795 6.59137,-9.61398 6.59137,-15.64156 V 305.9386 c 0.0468,-3.24977 3.39357,-2.39509 5.08857,0 3.16413,5.48338 10.57325,10.17647 17.70914,10.17647 7.13588,0 14.31949,-3.89691 17.70882,-10.17647 1.28415,-1.51294 4.90324,-4.09465 5.27682,0 v 15.00421 c 0,6.02758 2.13328,11.24328 6.40083,15.63666 4.40252,4.27212 9.61136,6.40573 15.63894,6.40573 6.15341,0 11.36943,-2.13361 15.64122,-6.40083 4.39796,-4.39795 6.5917,-9.61398 6.5917,-15.64156 v -82.52075 c 0,-4.6457 -1.38089,-8.85082 -4.1404,-12.6183 -2.6425,-3.89853 -6.09751,-6.59856 -10.36474,-8.10202 -2.51176,-0.88214 -5.02318,-1.31945 -7.53495,-1.31945 -6.78355,0 -12.49899,2.63759 -17.14927,7.91343 l -22.36791,26.17756 c -0.49974,0.37815 -2.16694,3.25729 -5.70596,3.25729 -3.52954,0 -5.00392,-2.87881 -5.50822,-3.25238 l -22.56108,-26.18247 c -4.51921,-5.27584 -10.17256,-7.91343 -16.95611,-7.91343 z m 139.39246,0.002 c -5.27552,0 -9.79799,1.88422 -13.56384,5.65039 -3.64197,3.64165 -5.46246,8.10007 -5.46246,13.37591 0,5.27584 1.82049,9.798 5.46246,13.56417 3.76585,3.64164 8.28832,5.46246 13.56384,5.46246 5.27584,0 9.79734,-1.82082 13.56645,-5.46246 3.76617,-3.76617 5.64812,-8.28833 5.64812,-13.56417 0,-5.27584 -1.88195,-9.73426 -5.64812,-13.37591 -3.76911,-3.76617 -8.29061,-5.65039 -13.56645,-5.65039 z m 0.18597,41.82368 c -5.27584,0 -9.798,1.88455 -13.56417,5.65073 -3.76617,3.76911 -5.6481,8.29061 -5.6481,13.56645 v 46.53344 c 0,5.27552 1.88193,9.79767 5.6481,13.56384 3.76912,3.64197 8.2916,5.46247 13.56417,5.46247 5.27879,0 9.73884,-1.8205 13.38048,-5.46247 3.76617,-3.76617 5.64812,-8.28832 5.64812,-13.56384 v -46.53344 c 0,-5.27879 -1.88195,-9.80028 -5.64812,-13.56645 -3.64459,-3.76618 -8.10496,-5.65073 -13.38048,-5.65073 z"
   style="fill-rule:nonzero;stroke-width:0.32684;fill:#323266;fill-opacity:1"
   id="path2"
   sodipodi:nodetypes="cccsscscsccsccscscssccsccscccscscscscsscsscscsscs" />
    </g>
</svg>
