<?xml version="1.0" encoding="utf-8"?>
<svg viewBox="0 0 24 24" xmlns="http://www.w3.org/2000/svg">
  <path id="path25" d="m 16.139409,4.178818 c 0.46824,0.04438 0.994754,0.196484 1.437776,0.415363 1.148164,0.567271 1.94876,1.63261 2.196639,2.923034 l 0.05279,0.274793 v 4.208979 4.208978 l -0.05279,0.274794 c -0.325848,1.696302 -1.593749,2.964203 -3.290051,3.290054 l -0.274797,0.05279 H 12.000002 7.7910225 l -0.274794,-0.05279 c -1.696301,-0.325851 -2.964202,-1.593752 -3.290053,-3.290054 l -0.05279,-0.274794 V 12.000987 7.792008 l 0.05279,-0.274793 c 0.325794,-1.696008 1.574914,-2.949587 3.277826,-3.289526 l 0.263832,-0.05266 4.1394095,-0.0023 c 2.276673,-0.0013 4.181146,0.0013 4.232166,0.0063 z M 11.199948,6.785927 C 9.7672225,6.932164 8.6372945,7.525462 7.8817605,8.528226 c -0.621444,0.824793 -0.936993,1.782557 -1.004816,3.049853 -0.06427,1.200924 0.128571,2.294811 0.556654,3.157567 0.597043,1.203271 1.589789,1.996494 2.9199175,2.333066 0.738413,0.186847 1.773624,0.237054 2.587371,0.125488 2.153504,-0.295252 3.597488,-1.653429 4.006978,-3.76887 0.09942,-0.513629 0.119141,-0.749345 0.119141,-1.424343 0,-0.691778 -0.02018,-0.923018 -0.127629,-1.460968 C 16.640664,9.044208 15.773617,7.876165 14.508967,7.265881 13.612776,6.833407 12.424041,6.660989 11.199948,6.785927 Z m 1.089927,2.210286 c 0.67726,0.115684 1.073405,0.445415 1.340336,1.11563 0.09111,0.228747 0.183979,0.578406 0.22365,0.842014 0.08112,0.539023 0.07646,1.573568 -0.0095,2.102343 -0.116865,0.719191 -0.348012,1.233948 -0.705547,1.571226 -0.300042,0.283045 -0.62613,0.393768 -1.162041,0.394571 -0.365405,6.7e-4 -0.570698,-0.03845 -0.831863,-0.158015 -0.547445,-0.250627 -0.920564,-0.918911 -1.061158,-1.900611 -0.05978,-0.417386 -0.06082,-1.609159 -0.0017,-2.005933 0.104126,-0.699493 0.343835,-1.242135 0.690479,-1.563065 0.347122,-0.321373 0.985787,-0.488961 1.51736,-0.39816 z" style="stroke-width: 0.0231899; fill: rgb(50, 50, 102);" transform="matrix(1, 0, 0, 1, 0, 8.881784197001252e-16)"/>
</svg>