<?xml version="1.0" encoding="UTF-8" standalone="no"?>
<svg
   width="907.872"
   height="153.094"
   viewBox="0 0 907.872 153.094"
   version="1.1"
   id="svg7"
   sodipodi:docname="logo.svg"
   inkscape:version="1.1.1 (3bf5ae0d25, 2021-09-20)"
   xmlns:inkscape="http://www.inkscape.org/namespaces/inkscape"
   xmlns:sodipodi="http://sodipodi.sourceforge.net/DTD/sodipodi-0.dtd"
   xmlns="http://www.w3.org/2000/svg"
   xmlns:svg="http://www.w3.org/2000/svg">
  <sodipodi:namedview
     id="namedview9"
     pagecolor="#505050"
     bordercolor="#eeeeee"
     borderopacity="1"
     inkscape:pageshadow="0"
     inkscape:pageopacity="0"
     inkscape:pagecheckerboard="0"
     showgrid="false"
     inkscape:zoom="1.1962039"
     inkscape:cx="453.936"
     inkscape:cy="76.491979"
     inkscape:window-width="1920"
     inkscape:window-height="1027"
     inkscape:window-x="-8"
     inkscape:window-y="-8"
     inkscape:window-maximized="1"
     inkscape:current-layer="svg7" />
  <defs
     id="defs4">
    <style
       id="style2">
      .cls-1 {
        fill: #fff;
        fill-rule: evenodd;
      }
    </style>
  </defs>
  <path
     id="hsdchannel"
     class="cls-1"
     d="M847.755,643.277H825.939V760.752h21.816v-63.01h33.412v63.01h21.817V676.841H847.755V643.277ZM987.5,676.841H922.968v50.346h42.718v16.172H922.968v17.393H987.5v-52.33H944.784V694.233H987.5V676.841Zm103.128-33.564h-21.81v45.617q-9.315-13.881-26.55-13.884a35.375,35.375,0,0,0-27.38,12.282q-11.07,12.282-11.07,31.5t11.07,31.5a35.528,35.528,0,0,0,27.53,12.281q17.085,0,26.4-13.578v11.748h21.81V643.277Zm-32.34,55.381a20.583,20.583,0,0,1,7.7,8.162,24.853,24.853,0,0,1,2.83,11.976q0,10.224-6.11,16.63a21.637,21.637,0,0,1-30.74,0q-6.18-6.408-6.18-16.63t6.18-16.629a20.446,20.446,0,0,1,15.34-6.408A21.136,21.136,0,0,1,1058.29,698.658Zm84.73-17.85a52.737,52.737,0,0,0-18.32,15.638,52.2,52.2,0,0,0-9.58,22.35q-3.315,18.766,6.93,31.2t28.55,12.434a48.969,48.969,0,0,0,29.06-9.535,50.1,50.1,0,0,0,18.72-25.25h-12.97a35.754,35.754,0,0,1-13.12,16.477,33.935,33.935,0,0,1-19.72,6.255q-12.81,0-19.94-8.925t-4.7-22.656a37.982,37.982,0,0,1,12.62-22.655,34.171,34.171,0,0,1,23.16-8.925,27.951,27.951,0,0,1,12.56,2.746,21.033,21.033,0,0,1,8.74,7.933,24.624,24.624,0,0,1,3.55,11.9h12.97q0.15-15.561-9.92-25.1t-25.62-9.535A49.352,49.352,0,0,0,1143.02,680.808Zm101.06-37.531h-12.66L1210.7,760.752h12.66l12.65-71.706h47.29l-12.64,71.706h12.66l14.8-83.911h-59.96Zm92.19,37.378a50.2,50.2,0,0,0-17.31,15.562,55.144,55.144,0,0,0-9.32,22.579q-3.345,18.919,6,31.276t26.58,12.358a41.674,41.674,0,0,0,10.69-1.373,42.633,42.633,0,0,0,9.77-3.891,44.785,44.785,0,0,0,15.27-13.959l-3.09,17.545h12.82l14.79-83.911h-12.81l-3.15,17.85a27.307,27.307,0,0,0-10.61-14.265q-7.62-5.264-18.29-5.263A44.4,44.4,0,0,0,1336.27,680.655Zm46.14,38.141a38.084,38.084,0,0,1-12.54,22.656,33.8,33.8,0,0,1-23.01,8.925q-12.885,0-19.86-8.925t-4.55-22.656a37.982,37.982,0,0,1,12.62-22.655,33.9,33.9,0,0,1,22.93-8.925q12.735,0,19.79,8.925Q1384.825,705.066,1382.41,718.8Zm114.96-41.955h-71.1l-14.79,83.911h12.66l12.64-71.706h45.62l-12.64,71.706h12.81Zm94.89,0h-71.09l-14.8,83.911h12.66l12.65-71.706h45.61l-12.64,71.706h12.82Zm29.37,10.832a51.81,51.81,0,0,0-17.85,31.123q-2.175,12.358,1.7,22.351a31.453,31.453,0,0,0,12.88,15.638,38.8,38.8,0,0,0,21.06,5.645,49.918,49.918,0,0,0,28.74-9,47.959,47.959,0,0,0,18.56-23.952h-12.97a34.589,34.589,0,0,1-12.95,15.943,34.035,34.035,0,0,1-19.45,6.026q-12.81,0-19.99-8.62t-5.14-21.893h72.92a46.468,46.468,0,0,0,1.3-7.323q1.17-17.085-9.07-27.767t-26.87-10.679Q1636.185,675.163,1621.63,687.673Zm49.48,5.34q7.05,7.173,6.35,18.918h-58.74a36.848,36.848,0,0,1,13.01-18.842,33.749,33.749,0,0,1,21.04-7.247Q1664.05,685.842,1671.11,693.013Zm62.7-49.736h-12.66l-20.72,117.475h12.66Zm-633.11,153.1v-7.626h624.29v7.626H1100.7Z"
     transform="translate(-825.938 -643.281)"
     style="fill:#333367;fill-opacity:1" />
</svg>
