<?xml version="1.0" encoding="UTF-8" standalone="no"?>
<!-- Created with Inkscape (http://www.inkscape.org/) -->

<svg
   version="1.1"
   id="svg1399"
   width="792"
   height="153"
   viewBox="0 0 792 153"
   sodipodi:docname="hsdchannel1.svg"
   inkscape:version="1.1.1 (3bf5ae0d25, 2021-09-20)"
   xmlns:inkscape="http://www.inkscape.org/namespaces/inkscape"
   xmlns:sodipodi="http://sodipodi.sourceforge.net/DTD/sodipodi-0.dtd"
   xmlns="http://www.w3.org/2000/svg"
   xmlns:svg="http://www.w3.org/2000/svg">
  <defs
     id="defs1403">
    <style
       id="style1490">
      .cls-1 {
        fill: #fff;
        fill-rule: evenodd;
      }
    </style>
  </defs>
  <sodipodi:namedview
     id="namedview1401"
     pagecolor="#505050"
     bordercolor="#eeeeee"
     borderopacity="1"
     inkscape:pageshadow="0"
     inkscape:pageopacity="0"
     inkscape:pagecheckerboard="0"
     showgrid="false"
     inkscape:zoom="0.61868687"
     inkscape:cx="240.83265"
     inkscape:cy="231.94286"
     inkscape:window-width="1920"
     inkscape:window-height="1027"
     inkscape:window-x="-8"
     inkscape:window-y="-8"
     inkscape:window-maximized="1"
     inkscape:current-layer="layer5" />
  <g
     inkscape:groupmode="layer"
     id="layer5"
     inkscape:label="Image 2"
     style="display:inline">
    <rect
       style="fill:#333367;fill-opacity:1;fill-rule:evenodd;stroke-width:1.15889"
       id="rect1661"
       width="797.29028"
       height="160.14597"
       x="-3.7875648"
       y="-6.0122952" />
  </g>
  <g
     inkscape:groupmode="layer"
     id="layer4"
     inkscape:label="Image 1"
     style="display:inline">
    <path
       id="hsdchannel"
       class="cls-1"
       d="M 35.355585,13.964286 H 17.22468 V 111.59574 H 35.355585 V 59.229211 H 63.123722 V 111.59574 H 81.255454 V 41.858749 H 35.355585 Z M 151.49525,41.858749 H 97.863813 v 41.841695 h 35.502197 v 13.44027 H 97.863813 V 111.59574 H 151.49525 V 68.105175 H 115.99472 V 56.312941 h 35.50053 z m 85.7079,-27.894463 H 219.07724 V 51.87579 Q 211.3357,40.33953 197.01199,40.337036 a 29.399553,29.399553 0 0 0 -22.75505,10.20736 q -9.20008,10.207358 -9.20008,26.179108 0,15.971748 9.20008,26.179106 a 29.52671,29.52671 0 0 0 22.87972,10.20653 q 14.19904,0 21.94058,-11.28444 v 9.76356 h 18.12591 z m -26.87721,46.026196 a 17.106177,17.106177 0 0 1 6.39933,6.783298 20.654901,20.654901 0 0 1 2.35197,9.953048 q 0,8.49699 -5.07792,13.820907 a 17.982138,17.982138 0 0 1 -25.54748,0 q -5.1361,-5.325579 -5.1361,-13.820907 0,-8.495328 5.1361,-13.820077 a 16.992319,16.992319 0 0 1 12.74881,-5.325578 17.565765,17.565765 0 0 1 9.12695,2.409309 z m 70.41764,-14.834827 a 43.828814,43.828814 0 0 0 -15.22544,12.996473 43.382521,43.382521 0 0 0 -7.96176,18.5747 q -2.75504,15.5961 5.7594,25.929782 8.51443,10.33369 23.72741,10.33369 a 40.697294,40.697294 0 0 0 24.15127,-7.92438 41.637248,41.637248 0 0 0 15.55787,-20.98484 h -10.77915 a 29.714534,29.714534 0 0 1 -10.9038,13.693753 28.202794,28.202794 0 0 1 -16.38896,5.198427 q -10.64617,0 -16.57179,-7.41742 -5.92562,-7.417415 -3.90609,-18.829012 a 31.566186,31.566186 0 0 1 10.48827,-18.828181 28.39893,28.39893 0 0 1 19.24788,-7.417414 23.229595,23.229595 0 0 1 10.4384,2.282153 17.480165,17.480165 0 0 1 7.26366,6.59298 20.464582,20.464582 0 0 1 2.95035,9.889886 h 10.77913 q 0.12466,-12.93248 -8.24433,-20.860179 -8.36901,-7.927698 -21.29235,-7.924374 a 41.015598,41.015598 0 0 0 -19.08831,4.693956 z M 364.73281,13.964286 H 354.2113 l -17.21837,97.631454 h 10.5215 l 10.5132,-59.593625 h 39.3019 l -10.50488,59.593625 h 10.52151 l 12.30002,-69.736991 h -49.83172 z m 76.61752,31.064213 a 41.720356,41.720356 0 0 0 -14.38604,12.93331 45.82923,45.82923 0 0 0 -7.74569,18.765019 q -2.77998,15.723255 4.9865,25.992952 7.76646,10.26969 22.09017,10.27052 a 34.634545,34.634545 0 0 0 8.88428,-1.14108 35.431553,35.431553 0 0 0 8.11968,-3.23375 37.220043,37.220043 0 0 0 12.69063,-11.60108 l -2.56804,14.58135 h 10.65447 l 12.29173,-69.736991 h -10.64618 l -2.61791,14.834828 a 22.694377,22.694377 0 0 0 -8.81779,-11.855396 q -6.33284,-4.37482 -15.2005,-4.373988 a 36.900076,36.900076 0 0 0 -17.73365,4.564306 z m 38.34617,31.698329 a 31.650957,31.650957 0 0 1 -10.42179,18.829012 28.090598,28.090598 0 0 1 -19.12322,7.41742 q -10.70849,0 -16.5053,-7.41742 -5.7968,-7.417415 -3.78142,-18.829012 a 31.566186,31.566186 0 0 1 10.48826,-18.828181 28.173706,28.173706 0 0 1 19.05673,-7.417414 q 10.58384,0 16.44713,7.417414 5.84832,7.417414 3.84126,18.831505 z m 95.54127,-34.868079 h -59.08999 l -12.29171,69.736991 h 10.52151 l 10.50488,-59.593625 h 37.914 l -10.50488,59.593625 h 10.64616 z m 78.86145,0 h -59.08168 l -12.30003,69.736991 h 10.52151 l 10.5132,-59.593625 h 37.90568 l -10.50488,59.593625 h 10.65448 z m 24.4089,9.002289 a 43.0584,43.0584 0 0 0 -14.83483,25.86579 q -1.8076,10.270521 1.41284,18.575532 a 26.140047,26.140047 0 0 0 10.70435,12.99647 32.246013,32.246013 0 0 0 17.5026,4.69147 41.485991,41.485991 0 0 0 23.88532,-7.47975 39.8579,39.8579 0 0 0 15.42489,-19.906096 h -10.77914 a 28.746323,28.746323 0 0 1 -10.76252,13.249956 28.285903,28.285903 0 0 1 -16.16456,5.0081 q -10.64617,0 -16.61334,-7.163932 -5.96718,-7.163934 -4.27177,-18.194895 h 60.60256 a 38.618755,38.618755 0 0 0 1.08041,-6.086019 q 0.97237,-14.19905 -7.53792,-23.076676 -8.51029,-8.877627 -22.3312,-8.875134 -15.21962,-0.0017 -27.31603,10.395184 z m 41.12198,4.437981 q 5.85913,5.961358 5.27737,15.722425 h -48.81781 a 30.623739,30.623739 0 0 1 10.8124,-15.659262 28.048214,28.048214 0 0 1 17.48598,-6.022857 q 9.37627,0 15.24372,5.959694 z m 52.10888,-41.334733 h -10.5215 l -17.22004,97.631454 h 10.52151 z M 245.57216,141.20307 v -6.33784 h 518.83668 v 6.33784 H 245.57383 Z"
       style="stroke-width:0.831082" />
  </g>
</svg>
