<?xml version="1.0" encoding="UTF-8" standalone="no"?>
<svg
   inkscape:version="1.1.1 (3bf5ae0d25, 2021-09-20)"
   sodipodi:docname="openvk.svg"
   viewBox="0 0 24 24"
   height="24"
   width="24"
   id="mdi-abjad-arabic"
   version="1.1"
   xmlns:inkscape="http://www.inkscape.org/namespaces/inkscape"
   xmlns:sodipodi="http://sodipodi.sourceforge.net/DTD/sodipodi-0.dtd"
   xmlns="http://www.w3.org/2000/svg"
   xmlns:svg="http://www.w3.org/2000/svg"
   xmlns:rdf="http://www.w3.org/1999/02/22-rdf-syntax-ns#"
   xmlns:cc="http://creativecommons.org/ns#"
   xmlns:dc="http://purl.org/dc/elements/1.1/">
  <metadata
     id="metadata9">
    <rdf:RDF>
      <cc:Work
         rdf:about="">
        <dc:format>image/svg+xml</dc:format>
        <dc:type
           rdf:resource="http://purl.org/dc/dcmitype/StillImage" />
      </cc:Work>
    </rdf:RDF>
  </metadata>
  <defs
     id="defs7" />
  <sodipodi:namedview
     inkscape:current-layer="layer1"
     inkscape:window-maximized="1"
     inkscape:window-y="-8"
     inkscape:window-x="-8"
     inkscape:cy="15.423767"
     inkscape:cx="-13.34664"
     inkscape:zoom="11.313709"
     showgrid="false"
     id="namedview5"
     inkscape:window-height="1027"
     inkscape:window-width="1920"
     inkscape:pageshadow="2"
     inkscape:pageopacity="0"
     guidetolerance="10"
     gridtolerance="10"
     objecttolerance="10"
     borderopacity="1"
     bordercolor="#666666"
     pagecolor="#ffffff"
     inkscape:pagecheckerboard="0" />
  <g
     inkscape:groupmode="layer"
     id="layer1"
     inkscape:label="Layer 1"
     style="display:inline">
    <ellipse
       style="fill:#ffffff;fill-opacity:1;stroke:none;stroke-width:52.8;stroke-linejoin:round;paint-order:markers stroke fill"
       id="path845"
       cx="12.21875"
       cy="12.078125"
       rx="8.25"
       ry="9.078125" />
  </g>
  <path
     id="path25"
     d="M 5.637998,0.0098537 C 4.922026,0.07793266 4.116946,0.31125866 3.439531,0.64701754 1.683905,1.5172072 0.459733,3.1514297 0.08071,5.1309309 L 0,5.5524616 v 6.4565434 6.456543 l 0.08071,0.421532 c 0.498246,2.602115 2.43696,4.547066 5.03073,5.046919 l 0.420185,0.08099 h 6.435833 6.435842 l 0.42018,-0.08099 c 2.593769,-0.499853 4.532484,-2.444804 5.030734,-5.046919 l 0.08072,-0.421532 V 12.009005 5.5524616 L 23.854214,5.1309309 C 23.356051,2.5292667 21.446054,0.60628538 18.842176,0.08482142 L 18.438757,0.00404185 12.109293,5.0885408e-4 C 8.628092,-0.00148215 5.716013,0.00249985 5.637998,0.01017285 Z M 13.1908,4.0091404 c 2.190744,0.2243265 3.918487,1.1344415 5.073754,2.6726744 0.950234,1.2652261 1.432732,2.7344294 1.536439,4.6784542 0.09828,1.842207 -0.196595,3.520223 -0.851166,4.843684 -0.912923,1.84581 -2.430904,3.062609 -4.464769,3.578906 C 13.35597,20.069482 11.773055,20.1465 10.528775,19.975357 7.235909,19.522443 5.02795,17.439009 4.401811,14.193937 4.249789,13.406035 4.219636,13.044447 4.219636,12.009005 c 0,-1.061182 0.03086,-1.415902 0.195152,-2.2411138 C 4.871545,7.4733279 6.197322,5.6815578 8.131066,4.7453864 9.501409,4.0819744 11.319072,3.8174863 13.1908,4.0091404 Z M 11.524221,7.399703 C 10.488641,7.5771618 9.882905,8.0829668 9.474749,9.1110715 9.335434,9.4619681 9.19343,9.9983426 9.132771,10.402716 c -0.124039,0.826858 -0.116913,2.413842 0.01454,3.224978 0.178693,1.103235 0.532135,1.892868 1.078833,2.410251 0.458786,0.434189 0.957398,0.604037 1.776847,0.605268 0.558732,0.001 0.872638,-0.05899 1.271979,-0.242394 0.837072,-0.384458 1.407599,-1.409602 1.622577,-2.915524 0.09141,-0.640266 0.09299,-2.468438 0.0026,-3.077086 C 14.740977,9.3351915 14.374444,8.5027826 13.844398,8.0104783 13.313623,7.5174942 12.337058,7.2604153 11.524244,7.399703 Z"
     style="fill:#000000;stroke-width:0.0355161" />
</svg>
