<?xml version="1.0" encoding="UTF-8" standalone="no"?>
<svg
   viewBox="0 0 355.60001 354.35999"
   height="354.35999"
   width="355.60001"
   xml:space="preserve"
   id="svg2"
   version="1.1"
   sodipodi:docname="qiwi.svg"
   inkscape:version="1.1.1 (3bf5ae0d25, 2021-09-20)"
   xmlns:inkscape="http://www.inkscape.org/namespaces/inkscape"
   xmlns:sodipodi="http://sodipodi.sourceforge.net/DTD/sodipodi-0.dtd"
   xmlns="http://www.w3.org/2000/svg"
   xmlns:svg="http://www.w3.org/2000/svg"
   xmlns:rdf="http://www.w3.org/1999/02/22-rdf-syntax-ns#"
   xmlns:cc="http://creativecommons.org/ns#"
   xmlns:dc="http://purl.org/dc/elements/1.1/"><sodipodi:namedview
     id="namedview8"
     pagecolor="#505050"
     bordercolor="#eeeeee"
     borderopacity="1"
     inkscape:pageshadow="0"
     inkscape:pageopacity="0"
     inkscape:pagecheckerboard="0"
     showgrid="false"
     inkscape:zoom="1.1880574"
     inkscape:cx="293.75685"
     inkscape:cy="63.549118"
     inkscape:window-width="1920"
     inkscape:window-height="1027"
     inkscape:window-x="-8"
     inkscape:window-y="-8"
     inkscape:window-maximized="1"
     inkscape:current-layer="svg2" /><metadata
     id="metadata8"><rdf:RDF><cc:Work
         rdf:about=""><dc:format>image/svg+xml</dc:format><dc:type
           rdf:resource="http://purl.org/dc/dcmitype/StillImage" /></cc:Work></rdf:RDF></metadata><defs
     id="defs6" /><g
     transform="matrix(2.3636081,0,0,-2.2790827,-136.9858,480.50206)"
     id="g10"><g
       transform="scale(0.1)"
       id="g12"><path
         id="path14"
         style="fill:#f57d14;fill-opacity:1;fill-rule:nonzero;stroke:none"
         d="m 1620.98,745.691 c 131.91,0 275.04,-45.23 433.45,-185.589 15.87,-14.063 36.99,3.41 23.15,20.878 -155.68,196.559 -299.67,233.981 -443.27,265.629 -175.64,38.7 -265.99,137.532 -328.96,246.051 -12.53,21.59 -18.15,17.78 -19.27,-9.97 -1.38,-33.94 0.96,-78.85 8.55,-123.042 v 0 c -7.08,-0.328 -14.21,-0.238 -21.37,-0.238 -251.29,0 -454.998,203.7 -454.998,454.99 0,251.29 203.708,455 454.998,455 251.28,0 454.99,-203.71 454.99,-455 0,-17.88 -0.87,-35.55 -2.88,-52.89 -33.24,5.99 -98.62,6.67 -144.5,2.7 -17.26,-1.49 -14.83,-9.53 -1.78,-11.89 150.4,-27.18 253.74,-120.39 277.36,-289.54 0.54,-3.88 5.63,-5.05 7.65,-1.69 61.89,103.28 97.44,224.15 97.44,353.31 0,380.13 -308.15,688.29 -688.28,688.29 -380.135,0 -688.287,-308.16 -688.287,-688.29 0,-380.13 308.152,-688.322 688.287,-688.322 100.85,0 200.89,19.613 347.72,19.613 z m 51.24,249.899 c 30.61,-25.891 39.93,-56.668 23.73,-78.379 -9.01,-11.902 -23.61,-18.473 -41.1,-18.473 -17.18,0 -34.69,6.364 -46.84,16.973 -27.84,24.32 -36.02,63.777 -17.84,86.189 7.1,8.76 18.64,13.59 32.47,13.59 16.82,0 34.42,-7.08 49.58,-19.9 z m 141.28,65.76 c 4.5,-30.17 -5.03,-42.66 -14.6,-42.66 -10.44,0 -23.55,12.23 -39.02,36.35 -15.26,23.82 -20.84,51.14 -13.28,64.95 5,9.14 15.46,13.11 28.65,8.12 25.54,-9.65 35.57,-48.75 38.25,-66.76" /></g></g></svg>
