<?xml version="1.0" encoding="UTF-8" standalone="no"?>
<svg
   viewBox="0 0 57.599998 16"
   fill="currentColor"
   version="1.1"
   id="svg4"
   sodipodi:docname="telegram_ch.svg"
   width="57.599998"
   height="16"
   inkscape:version="1.1.1 (3bf5ae0d25, 2021-09-20)"
   xmlns:inkscape="http://www.inkscape.org/namespaces/inkscape"
   xmlns:sodipodi="http://sodipodi.sourceforge.net/DTD/sodipodi-0.dtd"
   xmlns="http://www.w3.org/2000/svg"
   xmlns:svg="http://www.w3.org/2000/svg">
  <defs
     id="defs8">
    <clipPath
       clipPathUnits="userSpaceOnUse"
       id="clipPath18964">
      <g
         inkscape:label="Clip"
         id="use18966">
        <text
           xml:space="preserve"
           style="font-size:10.6667px;line-height:1.25;font-family:Inter;-inkscape-font-specification:Inter"
           x="18.736343"
           y="11.812512"
           id="text18980"><tspan
             sodipodi:role="line"
             id="tspan18978"
             x="18.736343"
             y="11.812512"
             style="font-size:10.6667px;fill:#323266;fill-opacity:1">channel</tspan></text>
      </g>
    </clipPath>
  </defs>
  <sodipodi:namedview
     id="namedview6"
     pagecolor="#505050"
     bordercolor="#eeeeee"
     borderopacity="1"
     inkscape:pageshadow="0"
     inkscape:pageopacity="0"
     inkscape:pagecheckerboard="0"
     showgrid="false"
     inkscape:zoom="13.15625"
     inkscape:cx="30.4038"
     inkscape:cy="2.0902613"
     inkscape:window-width="1920"
     inkscape:window-height="1027"
     inkscape:window-x="-8"
     inkscape:window-y="-8"
     inkscape:window-maximized="1"
     inkscape:current-layer="svg4" />
  <path
     d="M 16,8 A 8,8 0 1 1 0,8 8,8 0 0 1 16,8 Z M 8.287,5.906 C 7.509,6.23 5.953,6.9 3.621,7.916 3.243,8.066 3.044,8.214 3.026,8.358 2.996,8.601 3.301,8.697 3.716,8.828 L 3.891,8.883 C 4.299,9.016 4.849,9.171 5.134,9.177 5.394,9.183 5.683,9.077 6.002,8.857 8.181,7.386 9.306,6.643 9.376,6.627 9.426,6.615 9.496,6.601 9.542,6.643 9.589,6.684 9.584,6.763 9.579,6.784 9.549,6.913 8.352,8.025 7.733,8.601 7.54,8.781 7.403,8.908 7.375,8.937 A 8.154,8.154 0 0 1 7.187,9.123 c -0.38,0.366 -0.664,0.64 0.015,1.088 0.327,0.216 0.589,0.393 0.85,0.571 0.284,0.194 0.568,0.387 0.936,0.629 0.093,0.06 0.183,0.125 0.27,0.187 0.331,0.236 0.63,0.448 0.997,0.414 0.214,-0.02 0.435,-0.22 0.547,-0.82 0.265,-1.417 0.786,-4.486 0.906,-5.751 A 1.426,1.426 0 0 0 11.695,5.126 0.337,0.337 0 0 0 11.581,4.909 0.526,0.526 0 0 0 11.271,4.816 c -0.3,0.005 -0.763,0.166 -2.984,1.09 z"
     style="fill:#323266"
     id="path2" />
  <g
     inkscape:groupmode="layer"
     id="layer3"
     inkscape:label="Layer 1">
    <g
       aria-label="channel"
       id="text21531"
       style="font-size:11.0218px;line-height:1.25;font-family:Inter;-inkscape-font-specification:Inter;fill:#323266;stroke-width:0.635877">
      <path
         d="m 20.56963,12.068594 q -0.818024,0 -1.436924,-0.387485 -0.613519,-0.387485 -0.95795,-1.087111 -0.344431,-0.6996264 -0.344431,-1.6252854 0,-0.9418042 0.344431,-1.6414302 0.344431,-0.7050077 0.95795,-1.0924929 0.6189,-0.3874851 1.436924,-0.3874851 0.871841,0 1.528413,0.4413025 0.661954,0.4359208 0.909514,1.2216546 L 22.076516,7.7739667 Q 21.941973,7.3111372 21.549106,7.0151416 21.161621,6.7137643 20.56963,6.7137643 q -0.602755,0 -0.99024,0.3175225 -0.387485,0.3121408 -0.575846,0.823406 -0.188361,0.5112651 -0.188361,1.1140198 0,0.5919912 0.188361,1.1032564 0.188361,0.505883 0.575846,0.818024 0.387485,0.312141 0.99024,0.312141 0.608136,0 1.001003,-0.306759 0.398249,-0.312141 0.532792,-0.801879 l 0.925659,0.263705 q -0.242178,0.801879 -0.909514,1.259327 -0.667335,0.452066 -1.54994,0.452066 z"
         id="path22396" />
      <path
         d="M 25.386285,8.3336675 V 11.939432 H 24.417573 V 3.9206421 h 0.968712 V 6.966706 q 0.295996,-0.6027547 0.753444,-0.8610782 0.462829,-0.2583234 1.05482,-0.2583234 0.914896,0 1.474597,0.5650825 0.565082,0.5650825 0.565082,1.7060111 v 3.821034 H 28.260134 V 8.199124 q 0,-0.6942442 -0.365959,-1.0871111 -0.360576,-0.3928669 -0.990239,-0.3928669 -0.651191,0 -1.087112,0.4251573 -0.430539,0.4197756 -0.430539,1.1893642 z"
         id="path22398" />
      <path
         d="m 32.619342,12.079357 q -0.570464,0 -1.038676,-0.215269 -0.462829,-0.21527 -0.737298,-0.629664 -0.274468,-0.414393 -0.274468,-1.006385 0,-0.5166465 0.204506,-0.8395508 0.204506,-0.3229043 0.543555,-0.5058834 0.344432,-0.1883609 0.758825,-0.2798504 0.414394,-0.09149 0.83417,-0.1453069 0.538174,-0.069963 0.877223,-0.1076348 0.33905,-0.037672 0.500502,-0.1291617 0.166834,-0.09149 0.166834,-0.3121408 v -0.032291 q 0,-0.5597008 -0.317523,-0.8664598 Q 33.81947,6.697619 33.195188,6.697619 q -0.65119,0 -1.017149,0.2852322 -0.365958,0.2798504 -0.505883,0.5973729 L 30.741115,7.273465 q 0.231415,-0.5489373 0.624282,-0.8556964 0.392867,-0.3121408 0.86646,-0.4413025 0.473593,-0.1291617 0.936422,-0.1291617 0.301378,0 0.683481,0.075344 0.387485,0.069963 0.74268,0.2852322 0.360576,0.2152695 0.591991,0.6404268 0.236797,0.4197756 0.236797,1.1247833 V 11.939432 H 34.47066 v -0.818024 h -0.06458 q -0.102253,0.209888 -0.328286,0.435921 -0.226033,0.220651 -0.586609,0.37134 -0.360577,0.150688 -0.871843,0.150688 z m 0.166834,-0.855696 q 0.538174,0 0.909514,-0.209888 0.37134,-0.209888 0.565082,-0.543555 0.193743,-0.33905 0.193743,-0.7050081 V 8.9310404 q -0.0592,0.069963 -0.258324,0.1291618 -0.199124,0.053817 -0.457447,0.096871 -0.252942,0.043054 -0.49512,0.075344 -0.236797,0.026909 -0.376722,0.043054 -0.349813,0.043054 -0.656572,0.1506887 -0.301377,0.102253 -0.484357,0.306759 -0.182979,0.1991244 -0.182979,0.5435551 0,0.468211 0.349813,0.710389 0.355195,0.236797 0.893369,0.236798 z"
         id="path22400" />
      <path
         d="M 38.09257,8.3336675 V 11.939432 H 37.123857 V 5.9226487 h 0.931041 l 0.0054,1.1140199 q 0.290613,-0.6404269 0.758825,-0.9148956 0.473593,-0.2744686 1.081729,-0.2744686 0.914896,0 1.474596,0.5650825 0.559701,0.5650825 0.559701,1.7060111 v 3.821034 H 40.966418 V 8.199124 q 0,-0.6942442 -0.365958,-1.0871111 -0.360576,-0.3928669 -0.99024,-0.3928669 -0.65119,0 -1.087111,0.4251573 -0.430539,0.4197756 -0.430539,1.1893642 z"
         id="path22402" />
      <path
         d="M 44.604472,8.3336675 V 11.939432 H 43.635759 V 5.9226487 H 44.5668 l 0.0054,1.1140199 q 0.290614,-0.6404269 0.758825,-0.9148956 0.473593,-0.2744686 1.08173,-0.2744686 0.914895,0 1.474596,0.5650825 0.559701,0.5650825 0.559701,1.7060111 v 3.821034 H 47.47832 V 8.199124 q 0,-0.6942442 -0.365958,-1.0871111 -0.360577,-0.3928669 -0.99024,-0.3928669 -0.65119,0 -1.087111,0.4251573 -0.430539,0.4197756 -0.430539,1.1893642 z"
         id="path22404" />
      <path
         d="m 52.677082,12.068594 q -0.871842,0 -1.506887,-0.387485 -0.629664,-0.387485 -0.974095,-1.08173 -0.339049,-0.6942439 -0.339049,-1.6199029 0,-0.925659 0.333667,-1.6306667 0.333668,-0.7050077 0.941805,-1.1032564 0.613518,-0.3982486 1.431542,-0.3982486 0.478975,0 0.941804,0.1614521 0.468212,0.1560704 0.844933,0.5112652 0.382104,0.349813 0.608137,0.925659 0.226033,0.575846 0.226033,1.4100154 v 0.4036304 h -4.348445 q 0.03767,0.9418045 0.538174,1.4476875 0.505883,0.500502 1.307762,0.500502 0.532792,0 0.914896,-0.231415 0.387485,-0.236796 0.554319,-0.694244 L 55.0881,10.54018 q -0.209887,0.683481 -0.850314,1.108638 -0.635045,0.419776 -1.560704,0.419776 z M 50.841909,8.4413022 h 3.358205 Q 54.130151,7.6717137 53.715757,7.192739 53.306745,6.7083825 52.564065,6.7083825 q -0.516647,0 -0.893368,0.2421782 -0.37134,0.2421783 -0.58661,0.6350452 -0.215269,0.3928669 -0.242178,0.8556963 z"
         id="path22406" />
      <path
         d="M 57.54217,3.9206421 V 11.939432 H 56.573457 V 3.9206421 Z"
         id="path22408" />
    </g>
  </g>
</svg>
